<?xml version="1.0" encoding="UTF-8" standalone="no"?>
<!-- Created with Inkscape (http://www.inkscape.org/) -->

<svg
   xmlns:dc="http://purl.org/dc/elements/1.1/"
   xmlns:cc="http://creativecommons.org/ns#"
   xmlns:rdf="http://www.w3.org/1999/02/22-rdf-syntax-ns#"
   xmlns:svg="http://www.w3.org/2000/svg"
   xmlns="http://www.w3.org/2000/svg"
   xmlns:sodipodi="http://sodipodi.sourceforge.net/DTD/sodipodi-0.dtd"
   xmlns:inkscape="http://www.inkscape.org/namespaces/inkscape"
   width="64.000031"
   height="64.000336"
   viewBox="0 0 16.933342 16.933422"
   version="1.1"
   id="svg8"
   inkscape:version="0.92.2 (5c3e80d, 2017-08-06)"
   sodipodi:docname="icon.svg">
  <title
     id="title815">Bin2Header Icon</title>
  <defs
     id="defs2" />
  <sodipodi:namedview
     id="base"
     pagecolor="#ffffff"
     bordercolor="#666666"
     borderopacity="1.0"
     inkscape:pageopacity="0.0"
     inkscape:pageshadow="2"
     inkscape:zoom="4"
     inkscape:cx="6.1448637"
     inkscape:cy="39.288684"
     inkscape:document-units="mm"
     inkscape:current-layer="layer1"
     showgrid="false"
     fit-margin-top="0"
     fit-margin-left="0"
     fit-margin-right="0"
     fit-margin-bottom="0"
     inkscape:window-width="1920"
     inkscape:window-height="1025"
     inkscape:window-x="-8"
     inkscape:window-y="-8"
     inkscape:window-maximized="1"
     units="px" />
  <metadata
     id="metadata5">
    <rdf:RDF>
      <cc:Work
         rdf:about="">
        <dc:format>image/svg+xml</dc:format>
        <dc:type
           rdf:resource="http://purl.org/dc/dcmitype/StillImage" />
        <dc:title>Bin2Header Icon</dc:title>
        <dc:date>2019-09-11</dc:date>
        <dc:creator>
          <cc:Agent>
            <dc:title>Jordan Irwin</dc:title>
          </cc:Agent>
        </dc:creator>
        <cc:license
           rdf:resource="https://github.com/AntumDeluge/bin2header/blob/master/LICENSE.txt" />
        <dc:rights>
          <cc:Agent>
            <dc:title>Licensed under the MIT license (see: LICENSE.txt)</dc:title>
          </cc:Agent>
        </dc:rights>
        <dc:description>Dotrice font: https://fontlibrary.org/en/font/dotrice</dc:description>
      </cc:Work>
    </rdf:RDF>
  </metadata>
  <g
     inkscape:label="Layer 1"
     inkscape:groupmode="layer"
     id="layer1"
     transform="translate(-95.098804,-132.42911)">
    <g
       id="g880">
      <g
         id="g837">
        <path
           sodipodi:nodetypes="ccccccccc"
           inkscape:connector-curvature="0"
           id="path818"
           d="m 95.638027,132.43921 h 15.854893 l 0.52913,0.52917 v 15.85489 l -0.52913,0.52917 H 95.638027 L 95.1089,148.82327 v -15.85489 z"
           style="opacity:1;fill:#999999;fill-opacity:1;stroke:#bc9536;stroke-width:0.02019154;stroke-miterlimit:4;stroke-dasharray:none;stroke-opacity:1" />
        <path
           style="opacity:1;fill:#000000;fill-opacity:1;stroke:#bc9536;stroke-width:0.01892946;stroke-miterlimit:4;stroke-dasharray:none;stroke-opacity:1"
           d="m 96.133533,132.96779 h 14.863887 l 0.49605,0.49609 v 14.86389 l -0.49605,0.49609 H 96.133533 l -0.496054,-0.49609 v -14.86389 z"
           id="rect815"
           inkscape:connector-curvature="0"
           sodipodi:nodetypes="ccccccccc" />
      </g>
      <g
         id="flowRoot831"
         style="font-style:normal;font-variant:normal;font-weight:normal;font-stretch:normal;font-size:40px;line-height:1.25;font-family:Dotrice;-inkscape-font-specification:Dotrice;letter-spacing:0px;word-spacing:0px;fill:#5858ff;fill-opacity:1;stroke:none"
         transform="matrix(0.26457588,0,0,0.26458333,100.69077,134.40245)"
         aria-label="H">
        <path
           inkscape:connector-curvature="0"
           id="path842"
           style="font-size:53.33333588px;fill:#5858ff;fill-opacity:1"
           d="m 34.350001,51.21107 c 0,1.173333 0.96,2.133333 2.133334,2.133333 1.173333,0 2.133333,-0.96 2.133333,-2.133333 0,-1.173334 -0.96,-2.133334 -2.133333,-2.133334 -1.173334,0 -2.133334,0.96 -2.133334,2.133334 z m -25.600001,0 c 0,1.173333 0.96,2.133333 2.133333,2.133333 1.173334,0 2.133334,-0.96 2.133334,-2.133333 0,-1.173334 -0.96,-2.133334 -2.133334,-2.133334 -1.173333,0 -2.133333,0.96 -2.133333,2.133334 z m 25.600001,-5.333334 c 0,1.173334 0.96,2.133334 2.133334,2.133334 1.173333,0 2.133333,-0.96 2.133333,-2.133334 0,-1.173333 -0.96,-2.133333 -2.133333,-2.133333 -1.173334,0 -2.133334,0.96 -2.133334,2.133333 z m -25.600001,0 c 0,1.173334 0.96,2.133334 2.133333,2.133334 1.173334,0 2.133334,-0.96 2.133334,-2.133334 0,-1.173333 -0.96,-2.133333 -2.133334,-2.133333 -1.173333,0 -2.133333,0.96 -2.133333,2.133333 z m 25.600001,-5.333333 c 0,1.173333 0.96,2.133333 2.133334,2.133333 1.173333,0 2.133333,-0.96 2.133333,-2.133333 0,-1.173334 -0.96,-2.133334 -2.133333,-2.133334 -1.173334,0 -2.133334,0.96 -2.133334,2.133334 z m -25.600001,0 c 0,1.173333 0.96,2.133333 2.133333,2.133333 1.173334,0 2.133334,-0.96 2.133334,-2.133333 0,-1.173334 -0.96,-2.133334 -2.133334,-2.133334 -1.173333,0 -2.133333,0.96 -2.133333,2.133334 z m 25.600001,-5.333334 c 0,1.173333 0.96,2.133334 2.133334,2.133334 1.173333,0 2.133333,-0.960001 2.133333,-2.133334 0,-1.173333 -0.96,-2.133333 -2.133333,-2.133333 -1.173334,0 -2.133334,0.96 -2.133334,2.133333 z m -6.4,0 c 0,1.173333 0.96,2.133334 2.133333,2.133334 1.173334,0 2.133334,-0.960001 2.133334,-2.133334 0,-1.173333 -0.96,-2.133333 -2.133334,-2.133333 -1.173333,0 -2.133333,0.96 -2.133333,2.133333 z m -6.4,0 c 0,1.173333 0.96,2.133334 2.133333,2.133334 1.173333,0 2.133333,-0.960001 2.133333,-2.133334 0,-1.173333 -0.96,-2.133333 -2.133333,-2.133333 -1.173333,0 -2.133333,0.96 -2.133333,2.133333 z m -6.400001,0 c 0,1.173333 0.96,2.133334 2.133334,2.133334 1.173333,0 2.133333,-0.960001 2.133333,-2.133334 0,-1.173333 -0.96,-2.133333 -2.133333,-2.133333 -1.173334,0 -2.133334,0.96 -2.133334,2.133333 z m -6.4,0 c 0,1.173333 0.96,2.133334 2.133333,2.133334 1.173334,0 2.133334,-0.960001 2.133334,-2.133334 0,-1.173333 -0.96,-2.133333 -2.133334,-2.133333 -1.173333,0 -2.133333,0.96 -2.133333,2.133333 z m 25.600001,-5.333334 c 0,1.173334 0.96,2.133334 2.133334,2.133334 1.173333,0 2.133333,-0.96 2.133333,-2.133334 0,-1.173333 -0.96,-2.133333 -2.133333,-2.133333 -1.173334,0 -2.133334,0.96 -2.133334,2.133333 z m -25.600001,0 c 0,1.173334 0.96,2.133334 2.133333,2.133334 1.173334,0 2.133334,-0.96 2.133334,-2.133334 0,-1.173333 -0.96,-2.133333 -2.133334,-2.133333 -1.173333,0 -2.133333,0.96 -2.133333,2.133333 z m 25.600001,-5.333333 c 0,1.173333 0.96,2.133333 2.133334,2.133333 1.173333,0 2.133333,-0.96 2.133333,-2.133333 0,-1.173333 -0.96,-2.133334 -2.133333,-2.133334 -1.173334,0 -2.133334,0.960001 -2.133334,2.133334 z m -25.600001,0 c 0,1.173333 0.96,2.133333 2.133333,2.133333 1.173334,0 2.133334,-0.96 2.133334,-2.133333 0,-1.173333 -0.96,-2.133334 -2.133334,-2.133334 C 9.71,22.411068 8.75,23.371069 8.75,24.544402 Z m 25.600001,-5.333334 c 0,1.173334 0.96,2.133334 2.133334,2.133334 1.173333,0 2.133333,-0.96 2.133333,-2.133334 0,-1.173333 -0.96,-2.133333 -2.133333,-2.133333 -1.173334,0 -2.133334,0.96 -2.133334,2.133333 z m -25.600001,0 c 0,1.173334 0.96,2.133334 2.133333,2.133334 1.173334,0 2.133334,-0.96 2.133334,-2.133334 0,-1.173333 -0.96,-2.133333 -2.133334,-2.133333 -1.173333,0 -2.133333,0.96 -2.133333,2.133333 z" />
      </g>
      <g
         id="flowRoot817"
         style="font-style:normal;font-variant:normal;font-weight:normal;font-stretch:normal;font-size:40px;line-height:1.25;font-family:Dotrice;-inkscape-font-specification:Dotrice;letter-spacing:0px;word-spacing:0px;fill:#000000;fill-opacity:1;stroke:none"
         transform="matrix(0.26457588,0,0,0.26458333,93.917767,128.75845)"
         aria-label="B">
        <path
           inkscape:connector-curvature="0"
           id="path839"
           style="font-size:53.33333588px;fill:#e20000;fill-opacity:1"
           d="m 27.950001,51.21107 c 0,1.173333 0.96,2.133333 2.133333,2.133333 1.173334,0 2.133334,-0.96 2.133334,-2.133333 0,-1.173334 -0.96,-2.133334 -2.133334,-2.133334 -1.173333,0 -2.133333,0.96 -2.133333,2.133334 z m -6.4,0 c 0,1.173333 0.96,2.133333 2.133333,2.133333 1.173333,0 2.133333,-0.96 2.133333,-2.133333 0,-1.173334 -0.96,-2.133334 -2.133333,-2.133334 -1.173333,0 -2.133333,0.96 -2.133333,2.133334 z m -6.400001,0 c 0,1.173333 0.96,2.133333 2.133334,2.133333 1.173333,0 2.133333,-0.96 2.133333,-2.133333 0,-1.173334 -0.96,-2.133334 -2.133333,-2.133334 -1.173334,0 -2.133334,0.96 -2.133334,2.133334 z m -6.4,0 c 0,1.173333 0.96,2.133333 2.133333,2.133333 1.173334,0 2.133334,-0.96 2.133334,-2.133333 0,-1.173334 -0.96,-2.133334 -2.133334,-2.133334 -1.173333,0 -2.133333,0.96 -2.133333,2.133334 z m 25.600001,-5.333334 c 0,1.173334 0.96,2.133334 2.133334,2.133334 1.173333,0 2.133333,-0.96 2.133333,-2.133334 0,-1.173333 -0.96,-2.133333 -2.133333,-2.133333 -1.173334,0 -2.133334,0.96 -2.133334,2.133333 z m -22.400001,0 c 0,1.173334 0.96,2.133334 2.133334,2.133334 1.173333,0 2.133333,-0.96 2.133333,-2.133334 0,-1.173333 -0.96,-2.133333 -2.133333,-2.133333 -1.173334,0 -2.133334,0.96 -2.133334,2.133333 z m 22.400001,-5.333333 c 0,1.173333 0.96,2.133333 2.133334,2.133333 1.173333,0 2.133333,-0.96 2.133333,-2.133333 0,-1.173334 -0.96,-2.133334 -2.133333,-2.133334 -1.173334,0 -2.133334,0.96 -2.133334,2.133334 z m -22.400001,0 c 0,1.173333 0.96,2.133333 2.133334,2.133333 1.173333,0 2.133333,-0.96 2.133333,-2.133333 0,-1.173334 -0.96,-2.133334 -2.133333,-2.133334 -1.173334,0 -2.133334,0.96 -2.133334,2.133334 z m 19.200001,-5.333334 c 0,1.173333 0.96,2.133334 2.133334,2.133334 1.173333,0 2.133333,-0.960001 2.133333,-2.133334 0,-1.173333 -0.96,-2.133333 -2.133333,-2.133333 -1.173334,0 -2.133334,0.96 -2.133334,2.133333 z m -6.4,0 c 0,1.173333 0.96,2.133334 2.133333,2.133334 1.173334,0 2.133334,-0.960001 2.133334,-2.133334 0,-1.173333 -0.96,-2.133333 -2.133334,-2.133333 -1.173333,0 -2.133333,0.96 -2.133333,2.133333 z m -6.400001,0 c 0,1.173333 0.960001,2.133334 2.133334,2.133334 1.173333,0 2.133333,-0.960001 2.133333,-2.133334 0,-1.173333 -0.96,-2.133333 -2.133333,-2.133333 -1.173333,0 -2.133334,0.96 -2.133334,2.133333 z m -6.4,0 c 0,1.173333 0.96,2.133334 2.133334,2.133334 1.173333,0 2.133333,-0.960001 2.133333,-2.133334 0,-1.173333 -0.96,-2.133333 -2.133333,-2.133333 -1.173334,0 -2.133334,0.96 -2.133334,2.133333 z m 22.400001,-5.333334 c 0,1.173334 0.96,2.133334 2.133334,2.133334 1.173333,0 2.133333,-0.96 2.133333,-2.133334 0,-1.173333 -0.96,-2.133333 -2.133333,-2.133333 -1.173334,0 -2.133334,0.96 -2.133334,2.133333 z m -22.400001,0 c 0,1.173334 0.96,2.133334 2.133334,2.133334 1.173333,0 2.133333,-0.96 2.133333,-2.133334 0,-1.173333 -0.96,-2.133333 -2.133333,-2.133333 -1.173334,0 -2.133334,0.96 -2.133334,2.133333 z m 22.400001,-5.333333 c 0,1.173333 0.96,2.133333 2.133334,2.133333 1.173333,0 2.133333,-0.96 2.133333,-2.133333 0,-1.173333 -0.96,-2.133334 -2.133333,-2.133334 -1.173334,0 -2.133334,0.960001 -2.133334,2.133334 z m -22.400001,0 c 0,1.173333 0.96,2.133333 2.133334,2.133333 1.173333,0 2.133333,-0.96 2.133333,-2.133333 0,-1.173333 -0.96,-2.133334 -2.133333,-2.133334 -1.173334,0 -2.133334,0.960001 -2.133334,2.133334 z m 16.000001,-5.333334 c 0,1.173334 0.96,2.133334 2.133333,2.133334 1.173334,0 2.133334,-0.96 2.133334,-2.133334 0,-1.173333 -0.96,-2.133333 -2.133334,-2.133333 -1.173333,0 -2.133333,0.96 -2.133333,2.133333 z m -6.4,0 c 0,1.173334 0.96,2.133334 2.133333,2.133334 1.173333,0 2.133333,-0.96 2.133333,-2.133334 0,-1.173333 -0.96,-2.133333 -2.133333,-2.133333 -1.173333,0 -2.133333,0.96 -2.133333,2.133333 z m -6.400001,0 c 0,1.173334 0.96,2.133334 2.133334,2.133334 1.173333,0 2.133333,-0.96 2.133333,-2.133334 0,-1.173333 -0.96,-2.133333 -2.133333,-2.133333 -1.173334,0 -2.133334,0.96 -2.133334,2.133333 z m -6.4,0 c 0,1.173334 0.96,2.133334 2.133333,2.133334 1.173334,0 2.133334,-0.96 2.133334,-2.133334 0,-1.173333 -0.96,-2.133333 -2.133334,-2.133333 -1.173333,0 -2.133333,0.96 -2.133333,2.133333 z" />
      </g>
    </g>
  </g>
</svg>
